<?xml version="1.0" encoding="UTF-8" standalone="no"?>
<!DOCTYPE svg PUBLIC "-//W3C//DTD SVG 1.1//EN" "http://www.w3.org/Graphics/SVG/1.1/DTD/svg11.dtd">
<svg width="100%" height="100%" viewBox="0 0 1702 1043" version="1.1" xmlns="http://www.w3.org/2000/svg" xmlns:xlink="http://www.w3.org/1999/xlink" xml:space="preserve" xmlns:serif="http://www.serif.com/" style="fill-rule:evenodd;clip-rule:evenodd;stroke-linejoin:round;stroke-miterlimit:2;">
    <g transform="matrix(1,0,0,1,-35.070076,-83.634844)">
        <g transform="matrix(1,0,0,1,2043,-232)">
            <g transform="matrix(1,0,0,1,-2037,232)">
                <g transform="matrix(2.958308,0,0,3.110492,294.210741,-194.270597)">
                    <rect x="474.726" y="108.924" width="1" height="133.551" style="fill:url(#_Linear1);"/>
                </g>
                <g transform="matrix(2.958308,0,0,3.110492,294.210741,-194.270597)">
                    <rect x="481.787" y="102.207" width="1" height="140.268" style="fill:url(#_Linear2);"/>
                </g>
                <g transform="matrix(2.958308,0,0,3.110492,294.210741,-197.419456)">
                    <rect x="474.726" y="263.166" width="1" height="132.554" style="fill:url(#_Linear3);"/>
                </g>
                <g transform="matrix(2.958308,0,0,3.329271,294.210741,-254.994587)">
                    <rect x="481.787" y="263.166" width="1" height="132.554" style="fill:url(#_Linear4);"/>
                </g>
                <g transform="matrix(2.958308,0,0,2.958308,294.210741,-157.369599)">
                    <path d="M481.973,259.242L478.756,262.459L475.54,259.242L476.965,257.817L478.756,259.608L480.547,257.817L481.973,259.242ZM479.84,257.11L478.756,258.194L477.672,257.11L478.756,256.026L479.84,257.11ZM473.383,252.821L476.965,249.238L478.756,251.029L480.547,249.238L484.13,252.821L480.547,256.404L478.756,254.612L476.965,256.404L473.383,252.821ZM479.84,248.531L478.756,249.615L477.672,248.531L478.756,247.448L479.84,248.531ZM475.54,246.398L478.756,243.182L481.973,246.398L480.547,247.824L478.756,246.034L476.965,247.824L475.54,246.398ZM485.544,252.821L481.255,248.531L483.387,246.398L479.256,242.267L479.256,98.527L478.256,98.527L478.256,242.268L474.126,246.398L476.258,248.531L471.969,252.821L476.258,257.11L474.126,259.242L478.256,263.372L478.256,402.539L479.256,402.539L479.256,263.373L483.387,259.242L481.255,257.11L485.544,252.821Z" style="fill:url(#_Linear5);"/>
                </g>
            </g>
        </g>
        <g transform="matrix(1,0,0,1,2043,-232)">
            <g transform="matrix(1,0,0,1,-3698.370103,232)">
                <g transform="matrix(2.958308,0,0,3.103379,294.210741,-192.545918)">
                    <rect x="474.726" y="88.995" width="1" height="153.481" style="fill:url(#_Linear6);"/>
                </g>
                <g transform="matrix(2.958308,0,0,3.110492,294.210741,-194.270597)">
                    <rect x="481.787" y="108.92" width="1" height="133.555" style="fill:url(#_Linear7);"/>
                </g>
                <g transform="matrix(2.958308,0,0,3.110492,294.210741,-197.419456)">
                    <rect x="474.726" y="263.166" width="1" height="162.453" style="fill:url(#_Linear8);"/>
                </g>
                <g transform="matrix(2.958308,0,0,3.329271,294.210741,-254.994587)">
                    <rect x="481.787" y="263.166" width="1" height="132.554" style="fill:url(#_Linear9);"/>
                </g>
                <g transform="matrix(2.958308,0,0,2.958308,294.210741,-157.369599)">
                    <path d="M481.973,259.242L478.756,262.459L475.54,259.242L476.965,257.817L478.756,259.608L480.547,257.817L481.973,259.242ZM479.84,257.11L478.756,258.194L477.672,257.11L478.756,256.026L479.84,257.11ZM473.383,252.821L476.965,249.238L478.756,251.029L480.547,249.238L484.13,252.821L480.547,256.404L478.756,254.612L476.965,256.404L473.383,252.821ZM479.84,248.531L478.756,249.615L477.672,248.531L478.756,247.448L479.84,248.531ZM475.54,246.398L478.756,243.182L481.973,246.398L480.547,247.824L478.756,246.034L476.965,247.824L475.54,246.398ZM485.544,252.821L481.255,248.531L483.387,246.398L479.256,242.267L479.304,98.51L478.304,98.51L478.256,242.268L474.126,246.398L476.258,248.531L471.969,252.821L476.258,257.11L474.126,259.242L478.256,263.372L478.256,408.624L479.256,408.624L479.256,263.373L483.387,259.242L481.255,257.11L485.544,252.821Z" style="fill:url(#_Linear10);"/>
                </g>
            </g>
        </g>
        <g transform="matrix(1,0,0,1,2043,-232)">
            <g transform="matrix(0,1,-1,0,-918.306296,-1342.961445)">
                <g transform="matrix(2.958308,0,0,3.110492,254.210741,-194.270597)">
                    <rect x="474.726" y="-129.719" width="1" height="259.029" style="fill:url(#_Linear11);"/>
                </g>
                <g transform="matrix(2.958308,0,0,3.110492,294.210741,-194.270597)">
                    <rect x="481.787" y="-122.995" width="1" height="252.305" style="fill:url(#_Linear12);"/>
                </g>
                <g transform="matrix(2.958308,0,0,3.329271,294.210741,-254.994587)">
                    <rect x="481.787" y="-69.128" width="1" height="464.881" style="fill:url(#_Linear13);"/>
                </g>
                <g transform="matrix(2.958308,0,0,3.486836,233.322208,-296.460265)">
                    <rect x="481.787" y="-71.521" width="1" height="466.701" style="fill:url(#_Linear14);"/>
                </g>
            </g>
        </g>
        <g transform="matrix(1,0,0,1,2043,-232)">
            <g transform="matrix(0,1,-1,0,-918.320005,-363.961445)">
                <g transform="matrix(2.958308,0,0,3.110492,254.210741,-194.270597)">
                    <rect x="474.726" y="-129.719" width="1" height="259.029" style="fill:url(#_Linear15);"/>
                </g>
                <g transform="matrix(2.958308,0,0,3.110492,294.210741,-194.270597)">
                    <rect x="481.787" y="-122.995" width="1" height="252.305" style="fill:url(#_Linear16);"/>
                </g>
                <g transform="matrix(2.958308,0,0,3.329271,294.210741,-254.994587)">
                    <rect x="481.787" y="-102.769" width="1" height="504.192" style="fill:url(#_Linear17);"/>
                </g>
                <g transform="matrix(2.958308,0,0,3.486836,233.322208,-296.460265)">
                    <rect x="481.787" y="-71.521" width="1" height="459.818" style="fill:url(#_Linear18);"/>
                </g>
            </g>
        </g>
    </g>
    <defs>
        <linearGradient id="_Linear1" x1="0" y1="0" x2="1" y2="0" gradientUnits="userSpaceOnUse" gradientTransform="matrix(1,0,0,1,474.726,176.198)"><stop offset="0" style="stop-color:rgb(189,149,110);stop-opacity:1"/><stop offset="1" style="stop-color:rgb(226,216,158);stop-opacity:1"/></linearGradient>
        <linearGradient id="_Linear2" x1="0" y1="0" x2="1" y2="0" gradientUnits="userSpaceOnUse" gradientTransform="matrix(1,0,0,1,481.786,176.198)"><stop offset="0" style="stop-color:rgb(189,149,110);stop-opacity:1"/><stop offset="1" style="stop-color:rgb(226,216,158);stop-opacity:1"/></linearGradient>
        <linearGradient id="_Linear3" x1="0" y1="0" x2="1" y2="0" gradientUnits="userSpaceOnUse" gradientTransform="matrix(1,0,0,1,474.726,329.443)"><stop offset="0" style="stop-color:rgb(189,149,110);stop-opacity:1"/><stop offset="1" style="stop-color:rgb(226,216,158);stop-opacity:1"/></linearGradient>
        <linearGradient id="_Linear4" x1="0" y1="0" x2="1" y2="0" gradientUnits="userSpaceOnUse" gradientTransform="matrix(1,0,0,1,481.786,329.443)"><stop offset="0" style="stop-color:rgb(189,149,110);stop-opacity:1"/><stop offset="1" style="stop-color:rgb(226,216,158);stop-opacity:1"/></linearGradient>
        <linearGradient id="_Linear5" x1="0" y1="0" x2="1" y2="0" gradientUnits="userSpaceOnUse" gradientTransform="matrix(13.5737,0,0,13.5737,471.969,252.82)"><stop offset="0" style="stop-color:rgb(189,149,110);stop-opacity:1"/><stop offset="1" style="stop-color:rgb(226,216,158);stop-opacity:1"/></linearGradient>
        <linearGradient id="_Linear6" x1="0" y1="0" x2="1" y2="0" gradientUnits="userSpaceOnUse" gradientTransform="matrix(1,0,0,1,474.726,176.198)"><stop offset="0" style="stop-color:rgb(189,149,110);stop-opacity:1"/><stop offset="1" style="stop-color:rgb(226,216,158);stop-opacity:1"/></linearGradient>
        <linearGradient id="_Linear7" x1="0" y1="0" x2="1" y2="0" gradientUnits="userSpaceOnUse" gradientTransform="matrix(1,0,0,1,481.786,176.198)"><stop offset="0" style="stop-color:rgb(189,149,110);stop-opacity:1"/><stop offset="1" style="stop-color:rgb(226,216,158);stop-opacity:1"/></linearGradient>
        <linearGradient id="_Linear8" x1="0" y1="0" x2="1" y2="0" gradientUnits="userSpaceOnUse" gradientTransform="matrix(1,0,0,1,474.726,329.443)"><stop offset="0" style="stop-color:rgb(189,149,110);stop-opacity:1"/><stop offset="1" style="stop-color:rgb(226,216,158);stop-opacity:1"/></linearGradient>
        <linearGradient id="_Linear9" x1="0" y1="0" x2="1" y2="0" gradientUnits="userSpaceOnUse" gradientTransform="matrix(1,0,0,1,481.786,329.443)"><stop offset="0" style="stop-color:rgb(189,149,110);stop-opacity:1"/><stop offset="1" style="stop-color:rgb(226,216,158);stop-opacity:1"/></linearGradient>
        <linearGradient id="_Linear10" x1="0" y1="0" x2="1" y2="0" gradientUnits="userSpaceOnUse" gradientTransform="matrix(13.5737,0,0,13.5737,471.969,252.82)"><stop offset="0" style="stop-color:rgb(189,149,110);stop-opacity:1"/><stop offset="1" style="stop-color:rgb(226,216,158);stop-opacity:1"/></linearGradient>
        <linearGradient id="_Linear11" x1="0" y1="0" x2="1" y2="0" gradientUnits="userSpaceOnUse" gradientTransform="matrix(1,0,0,1,474.726,176.198)"><stop offset="0" style="stop-color:rgb(189,149,110);stop-opacity:1"/><stop offset="1" style="stop-color:rgb(226,216,158);stop-opacity:1"/></linearGradient>
        <linearGradient id="_Linear12" x1="0" y1="0" x2="1" y2="0" gradientUnits="userSpaceOnUse" gradientTransform="matrix(1,0,0,1,481.786,176.198)"><stop offset="0" style="stop-color:rgb(189,149,110);stop-opacity:1"/><stop offset="1" style="stop-color:rgb(226,216,158);stop-opacity:1"/></linearGradient>
        <linearGradient id="_Linear13" x1="0" y1="0" x2="1" y2="0" gradientUnits="userSpaceOnUse" gradientTransform="matrix(1,0,0,1,481.786,329.443)"><stop offset="0" style="stop-color:rgb(189,149,110);stop-opacity:1"/><stop offset="1" style="stop-color:rgb(226,216,158);stop-opacity:1"/></linearGradient>
        <linearGradient id="_Linear14" x1="0" y1="0" x2="1" y2="0" gradientUnits="userSpaceOnUse" gradientTransform="matrix(1,0,0,1,481.786,329.443)"><stop offset="0" style="stop-color:rgb(189,149,110);stop-opacity:1"/><stop offset="1" style="stop-color:rgb(226,216,158);stop-opacity:1"/></linearGradient>
        <linearGradient id="_Linear15" x1="0" y1="0" x2="1" y2="0" gradientUnits="userSpaceOnUse" gradientTransform="matrix(1,0,0,1,474.726,176.198)"><stop offset="0" style="stop-color:rgb(189,149,110);stop-opacity:1"/><stop offset="1" style="stop-color:rgb(226,216,158);stop-opacity:1"/></linearGradient>
        <linearGradient id="_Linear16" x1="0" y1="0" x2="1" y2="0" gradientUnits="userSpaceOnUse" gradientTransform="matrix(1,0,0,1,481.786,176.198)"><stop offset="0" style="stop-color:rgb(189,149,110);stop-opacity:1"/><stop offset="1" style="stop-color:rgb(226,216,158);stop-opacity:1"/></linearGradient>
        <linearGradient id="_Linear17" x1="0" y1="0" x2="1" y2="0" gradientUnits="userSpaceOnUse" gradientTransform="matrix(1,0,0,1,481.786,329.443)"><stop offset="0" style="stop-color:rgb(189,149,110);stop-opacity:1"/><stop offset="1" style="stop-color:rgb(226,216,158);stop-opacity:1"/></linearGradient>
        <linearGradient id="_Linear18" x1="0" y1="0" x2="1" y2="0" gradientUnits="userSpaceOnUse" gradientTransform="matrix(1,0,0,1,481.786,329.443)"><stop offset="0" style="stop-color:rgb(189,149,110);stop-opacity:1"/><stop offset="1" style="stop-color:rgb(226,216,158);stop-opacity:1"/></linearGradient>
    </defs>
</svg>
